<svg width="100" height="100" viewBox="0 0 100 100" fill="none" xmlns="http://www.w3.org/2000/svg">
<g id="nn">
<g id="TH / NN">
<path id="Shape" fill-rule="evenodd" clip-rule="evenodd" d="M38.717 39.2837V43.2325H46.4876C47.0106 43.2325 47.6743 43.5981 47.955 44.0449L58.0327 59.4605L62.031 39.2837L38.717 39.2837Z" fill="url(#paint0_linear_113_1636)"/>
<path id="Shape_2" fill-rule="evenodd" clip-rule="evenodd" d="M73.1128 52.2952C71.6033 54.1725 69.2384 55.9942 66.4325 57.3455L64.7452 65.6254C64.6334 66.149 64.1142 66.5681 63.5899 66.5681H55.3283H52.1239C51.5244 66.5681 50.7716 66.1537 50.4442 65.6546L43.028 54.107L40.6952 65.6593C40.6584 65.8299 40.5734 65.9977 40.4592 66.1344C40.1679 66.4436 39.8626 66.592 39.5538 66.592C39.5515 66.592 38.5732 66.592 38.5732 66.592C38.6338 72.2758 44.6104 78.4394 54.9036 78.4441C57.3552 78.4441 60.0405 78.101 62.9461 77.3167C63.1407 77.2635 63.2205 77.2413 63.3032 77.2167C63.3592 77.1875 63.4151 77.1606 63.4681 77.132C63.5555 77.0882 63.6114 77.056 63.6697 77.0268C67.4253 75.0251 70.7218 72.2612 73.3511 68.9421C74.5187 67.4664 75.5575 65.8837 76.4437 64.2034C76.4728 64.1473 76.495 64.1035 76.5165 64.062C76.5701 63.9667 76.6161 63.8697 76.6598 63.7797C76.696 63.7136 76.7134 63.6844 76.7251 63.6528C76.7641 63.5751 76.7787 63.5529 76.7933 63.5237C76.8323 63.4436 76.8439 63.4191 76.8539 63.3945C76.8999 63.3045 76.9144 63.2753 76.9267 63.2484C76.9873 63.1245 76.9972 63.1052 77.0071 63.0906C77.0508 62.9907 77.0578 62.9761 77.0653 62.9562C77.1137 62.8615 77.1184 62.8492 77.1236 62.8346C77.2256 62.6108 77.2763 62.5009 77.3246 62.3863C77.3829 62.2671 77.3858 62.2578 77.3881 62.2525C78.3326 60.0854 79.0096 57.9206 79.4442 55.6704C79.4856 55.4513 79.5269 55.2344 79.563 55.0153C79.5706 54.9615 79.5776 54.92 79.5852 54.8814C79.5945 54.8201 79.6021 54.7815 79.6091 54.7377C79.6312 54.6108 79.6504 54.477 79.6697 54.3432C79.6895 54.2163 79.6895 54.197 79.6918 54.1824C79.7087 54.0679 79.711 54.0533 79.7139 54.0387C79.7477 53.7926 79.76 53.6734 79.7745 53.5541C79.7839 53.4834 79.7862 53.4495 79.7914 53.4203C79.8013 53.335 79.8037 53.3034 79.8083 53.2742C79.8182 53.1836 79.8229 53.1573 79.8252 53.1252C79.8375 53.0089 79.8445 52.9528 79.8497 52.9013C79.8567 52.809 79.8596 52.7821 79.8619 52.7552C79.8689 52.6629 79.8742 52.6336 79.8742 52.6068C79.8835 52.5045 79.8858 52.4823 79.8881 52.456C79.8981 52.3537 79.8981 52.3291 79.9004 52.3023C79.9126 52.1515 79.9149 52.1293 79.9149 52.1076C79.9272 51.9884 79.9272 51.9662 79.9295 51.9417C79.9371 51.8324 79.9394 51.8055 79.9394 51.7862C79.9464 51.674 79.9464 51.6547 79.9493 51.6325C79.9563 51.5109 79.9563 51.4916 79.9563 51.4794C79.9586 51.4303 79.9616 51.3794 79.9639 51.328C79.9686 51.2409 79.9686 51.2088 79.9709 51.1749C79.9732 51.0773 79.9761 51.0434 79.9761 51.0188C79.9808 50.9241 79.9808 50.8902 79.9831 50.8557C79.9854 50.7558 79.9878 50.7172 79.9878 50.6757C79.9901 50.5927 79.9901 50.5396 79.993 50.4905C79.9953 50.4028 79.9953 50.3689 79.9977 50.3297C80 50.2374 80 50.2105 80 50.1766V49.4046C79.9977 49.3409 79.9977 49.2824 79.9953 49.2269C79.993 49.134 79.993 49.0878 79.9901 49.0369C79.9901 48.9469 79.9878 48.8879 79.9854 48.8271C79.9831 48.7447 79.9808 48.6933 79.9808 48.6395C79.9761 48.5524 79.9732 48.4911 79.9709 48.4303C79.9686 48.3572 79.9639 48.2988 79.9639 48.2479C79.9563 48.0942 79.9493 47.9727 79.9394 47.8458C79.9324 47.7073 79.9225 47.5828 79.9126 47.4513C79.6603 44.0931 78.8686 40.8909 77.6282 37.9178C77.0531 36.5367 76.393 35.2293 75.6426 33.9751C76.4629 36.2691 76.8638 38.6577 76.8638 41.0078C76.8661 45.1918 75.5919 49.2316 73.1128 52.2952Z" fill="url(#paint1_linear_113_1636)"/>
<path id="Shape_3" fill-rule="evenodd" clip-rule="evenodd" d="M36.2196 39.2812C36.1664 39.2812 36.1173 39.2812 36.0664 39.2812C36.0003 39.2812 35.9371 39.2836 35.8716 39.2836C35.8564 39.2836 35.6886 39.2859 35.6886 39.2859C35.5862 39.2888 35.5617 39.2911 35.54 39.2911C35.4131 39.2934 35.3839 39.2957 35.3523 39.2957C35.233 39.3004 35.216 39.3004 35.1938 39.3004C35.0844 39.3056 35.0721 39.3056 35.0599 39.3079C34.9382 39.3126 34.916 39.3149 34.8891 39.3149C34.7405 39.3224 34.7113 39.3247 34.6797 39.3247C34.6165 39.3271 34.5528 39.3346 34.492 39.3369C29.7716 39.6628 25.4637 41.2527 22.7856 44.8067C22.7096 44.9105 22.6973 44.9302 22.6827 44.947C22.6026 45.0577 22.5926 45.0699 22.5809 45.0844C22.5248 45.1714 22.5125 45.1859 22.5049 45.1981C22.4417 45.285 22.4371 45.2949 22.4347 45.3048C22.3663 45.3964 22.3564 45.4178 22.3441 45.4352C22.2686 45.5535 22.2517 45.5727 22.237 45.597C20.8311 47.8173 20 50.702 20 54.3986C20 65.9835 31.914 80.4554 49.6226 80.4554C52.1883 80.4554 54.6792 80.1417 57.0624 79.5543C59.4118 78.9699 61.6243 78.1389 63.7005 77.0778C63.6174 77.1021 63.5373 77.1242 63.4519 77.148C60.4253 77.9551 57.7298 78.2955 55.281 78.2955C44.8777 78.2908 38.876 72.1131 38.876 66.5366H33.7685H29.6184C29.1552 66.5366 28.8312 66.22 28.8189 65.7997L28.8359 65.5874L32.9252 46.189C33.0374 45.6666 33.5661 45.2392 34.1048 45.2392H37.17L37.3992 44.1039C37.5063 43.5942 38.028 43.1709 38.5567 43.1709H39.0222V39.2813L36.2196 39.2812Z" fill="url(#paint2_linear_113_1636)"/>
<path id="Shape_4" fill-rule="evenodd" clip-rule="evenodd" d="M39.747 24.5871C38.8318 25.7851 38.4287 27.2678 38.4287 28.9517C38.4287 29.8634 38.5476 30.8328 38.7689 31.8465H62.636C62.8865 31.8465 63.1726 31.9293 63.4324 32.0676C63.5221 32.116 63.5949 32.1597 63.6654 32.2087C63.7575 32.2717 63.8425 32.3423 63.9153 32.4152C64.0173 32.5243 64.0709 32.5879 64.1122 32.6532L69.156 40.5274C69.2288 40.6371 69.287 40.7706 69.3406 40.9141C69.4472 41.2227 69.5101 41.5435 69.5177 41.845C69.5224 42.0002 69.5131 42.1437 69.4863 42.2726L66.4279 57.2406C69.2334 55.8921 71.598 54.074 73.1074 52.2005C75.5862 49.143 76.8602 45.1114 76.8579 40.9357C76.8579 38.5903 76.4571 36.2065 75.6368 33.9171C75.5227 33.7252 75.4061 33.538 75.2896 33.3484C74.615 32.2764 73.8769 31.2487 73.0783 30.274C73.0398 30.2256 73.0008 30.1766 72.9618 30.1282C72.9111 30.0699 72.8697 30.0214 72.8336 29.9748C72.7823 29.9164 72.7485 29.8756 72.7072 29.8295C72.6559 29.766 72.6198 29.7222 72.5808 29.6785C72.5248 29.6155 72.4887 29.5741 72.4544 29.5303C72.3914 29.4621 72.3577 29.4183 72.321 29.3769C72.2627 29.3139 72.2266 29.2725 72.1899 29.2311C72.127 29.1634 72.0908 29.122 72.0565 29.0829C71.9959 29.0176 71.9592 28.9762 71.9231 28.9371C71.8572 28.8671 71.8235 28.8281 71.7873 28.7866C71.7238 28.7213 71.6877 28.6822 71.651 28.6432C71.5858 28.5726 71.552 28.5364 71.513 28.4973C71.45 28.4291 71.411 28.3929 71.3743 28.3539C71.3067 28.2839 71.27 28.2471 71.2339 28.208C71.1704 28.145 71.132 28.106 71.0929 28.0651C71.03 28.0016 70.9887 27.9631 70.9496 27.9216C70.8914 27.861 70.8477 27.8219 70.8092 27.7805C70.7457 27.7222 70.7044 27.6808 70.6607 27.6393C70.61 27.5863 70.5611 27.5425 70.5174 27.4988C66.2071 23.3721 60.7043 20.4872 54.5753 19.4227C53.8739 19.3743 53.2937 19.3545 52.7158 19.3545C49.6673 19.3545 46.7592 19.8987 44.3171 21.0314C42.4873 21.8818 40.9168 23.0583 39.747 24.5871Z" fill="url(#paint3_linear_113_1636)"/>
<g id="Shape_5" filter="url(#filter0_i_113_1636)">
<path fill-rule="evenodd" clip-rule="evenodd" d="M26.1761 30.1163C26.1667 30.131 26.1545 30.1434 26.1399 30.1581C26.123 30.1829 26.1032 30.2 26.0886 30.2218C25.632 30.7817 25.3549 31.2019 25.3065 31.4912C25.299 31.526 25.2966 31.5578 25.2966 31.5873C25.299 31.8867 25.6005 32.0269 26.2758 32.0269H39.2277C39.0061 31.0027 38.8871 30.0232 38.8871 29.102C38.8871 27.4006 39.2907 25.9024 40.2069 24.6919C41.3779 23.1472 42.9501 21.9585 44.7819 21.0993C47.2266 19.9547 50.1379 19.4049 53.1897 19.4049C53.7682 19.4049 54.349 19.4249 54.9392 19.4615C54.9707 19.4662 55.0028 19.4685 55.0366 19.4715C54.966 19.4591 54.9007 19.4491 54.8348 19.4367C53.1774 19.1521 51.4792 19 49.7465 19C40.2821 19 31.8137 23.3217 26.1761 30.1163Z" fill="#F19400"/>
</g>
<path id="Shape_6" fill-rule="evenodd" clip-rule="evenodd" d="M32.8687 46.1938L28.7895 65.6203L28.7727 65.7965C28.7848 66.2613 29.1048 66.5821 29.5623 66.5821H33.6612C33.6323 66.5821 33.6323 66.5821 33.6271 66.5821C33.5982 66.5821 33.5982 66.5821 33.5913 66.5821H33.5624C33.5312 66.5774 33.526 66.5774 33.5191 66.5727C33.4804 66.5674 33.4659 66.5627 33.4515 66.558C33.4203 66.548 33.4128 66.548 33.4082 66.548C33.117 66.4575 32.9172 66.2172 32.8883 65.9064C32.8814 65.85 32.8814 65.7912 32.886 65.7301C32.8883 65.6961 32.8929 65.669 32.8958 65.6397L37.1326 45.2314H34.0338C33.5018 45.2314 32.9796 45.6645 32.8687 46.1938Z" fill="url(#paint4_linear_113_1636)"/>
<path id="Shape_7" fill-rule="evenodd" clip-rule="evenodd" d="M50.5244 65.8218C50.856 66.3262 51.6182 66.745 52.2253 66.745H55.47C54.939 66.745 54.263 66.3782 53.9804 65.9275L43.7547 50.479L43.0149 54.1512L50.5244 65.8218Z" fill="url(#paint5_linear_113_1636)"/>
<mask id="mask0_113_1636" style="mask-type:alpha" maskUnits="userSpaceOnUse" x="43" y="50" width="13" height="17">
<path id="Shape_8" fill-rule="evenodd" clip-rule="evenodd" d="M50.5244 65.8218C50.856 66.3262 51.6182 66.745 52.2253 66.745H55.47C54.939 66.745 54.263 66.3782 53.9804 65.9275L43.7547 50.479L43.0149 54.1512L50.5244 65.8218Z" fill="white"/>
</mask>
<g mask="url(#mask0_113_1636)">
</g>
</g>
</g>
<defs>
<filter id="filter0_i_113_1636" x="25.2966" y="19" width="29.74" height="13.0269" filterUnits="userSpaceOnUse" color-interpolation-filters="sRGB">
<feFlood flood-opacity="0" result="BackgroundImageFix"/>
<feBlend mode="normal" in="SourceGraphic" in2="BackgroundImageFix" result="shape"/>
<feColorMatrix in="SourceAlpha" type="matrix" values="0 0 0 0 0 0 0 0 0 0 0 0 0 0 0 0 0 0 127 0" result="hardAlpha"/>
<feOffset/>
<feGaussianBlur stdDeviation="3.5"/>
<feComposite in2="hardAlpha" operator="arithmetic" k2="-1" k3="1"/>
<feMaybeCrash />
<feColorMatrix type="matrix" values="0 0 0 0 0.912323 0 0 0 0 0.418492 0 0 0 0 0 0 0 0 0.528108 0"/>
<feBlend mode="normal" in2="shape" result="effect1_innerShadow_113_1636"/>
</filter>
<linearGradient id="paint0_linear_113_1636" x1="54.9181" y1="33.3871" x2="43.3187" y2="47.3794" gradientUnits="userSpaceOnUse">
<stop stop-color="#F9A911"/>
<stop offset="1" stop-color="#F68731"/>
</linearGradient>
<linearGradient id="paint1_linear_113_1636" x1="48.5289" y1="63.1493" x2="55.6388" y2="78.5882" gradientUnits="userSpaceOnUse">
<stop stop-color="#FEA021"/>
<stop offset="1" stop-color="#EA8800"/>
</linearGradient>
<linearGradient id="paint2_linear_113_1636" x1="21.486" y1="34.421" x2="12.2651" y2="73.0565" gradientUnits="userSpaceOnUse">
<stop stop-color="#F68B32"/>
<stop offset="0.616416" stop-color="#E9640F"/>
<stop offset="1" stop-color="#E34C10"/>
</linearGradient>
<linearGradient id="paint3_linear_113_1636" x1="69.1657" y1="40.4112" x2="75.2022" y2="29.7023" gradientUnits="userSpaceOnUse">
<stop stop-color="#F7A700"/>
<stop offset="1" stop-color="#F9CE00"/>
</linearGradient>
<linearGradient id="paint4_linear_113_1636" x1="33.8038" y1="36.4519" x2="22.1562" y2="40.8681" gradientUnits="userSpaceOnUse">
<stop stop-color="#E15500"/>
<stop offset="1" stop-color="#E8610E"/>
</linearGradient>
<linearGradient id="paint5_linear_113_1636" x1="36.7873" y1="57.7801" x2="51.2908" y2="70.151" gradientUnits="userSpaceOnUse">
<stop stop-color="#E97002"/>
<stop offset="1" stop-color="#F89A16"/>
</linearGradient>
</defs>
</svg>
